<svg version="1.2" xmlns="http://www.w3.org/2000/svg" viewBox="0 0 500 500" width="500" height="500">
	<title>New Project</title>
	<style>
		.s0 { fill: #545454 } 
		.s1 { fill: #ffffff } 
		.s2 { fill: #ff9807 } 
	</style>
	<path id="Path 0" class="s0" d="m0 0h500v500h-500v-250z" />
	<path id="e" fill-rule="evenodd" class="s1" d="m262.6 167.7l-22.6 22.6l-99.5-1.2q1.6 28.9 18 44.9q16.4 16 41.7 16q21.1 0 49.9-14.1l8.2 20.7l-61.2 31.6l-12.5 0.8q-42.9 0-70.6-26.9q-27.7-27.3-27.7-69.1q0-43.7 28.1-73.3q28.1-30 68.3-30q35.1 0 57.3 21.8q22.6 21.5 22.6 56.2zm-93.6-48.4q-20.3 11.7-26.1 42.9l67.4-3.5q-2.7-16.8-14.4-28.1q-11.3-11.3-26.9-11.3z" />
	<path id="c" class="s2" d="m249.9 236.5l55.8-29.7l12.1-0.8q41.6 0 69.1 28.2q27.1 28.1 27.1 72.1q0 45.2-27.1 73.8q-27.5 28.9-69.1 28.9q-23.9 0-43.1-11.1q-19.7-11.1-28.7-31.7l42.8-29.8q23.1 31.8 48.7 40.1q20.8-22.6 20.8-60.3q0-31.3-15-51.1q-15.3-19.5-42.7-19.5q-20.1 0-42.4 10.8z" />
</svg>