<svg version="1.2" xmlns="http://www.w3.org/2000/svg" viewBox="0 0 497 113" width="497" height="113"><style>.s0{fill:#ffffff}.s1{fill:#ff9807}</style><path class="s0" d="m75 75h-75v-18.8h75zm0-28.1h-75v-18.7h75zm0-28.2h-75v-18.7h75zm65.6 56.2h-70.3l18.8-18.7h42.2l9.3-9.4h-56.2v-28.1l18.7-18.8h70.3l-18.7 18.8h-42.2l-9.4 9.4h56.3v28.1z" /><path fill-rule="evenodd" class="s1" d="m243.8 75h-56.3l-18.8-18.8v-56.2h75v18.7h-56.2v28.2l9.4 9.3h46.8zm84.4 0h-75v-75h75zm-56.2-18.7h37.5v-37.5h-37.5zm150 56.2l-65.7-65.6l28.2-28.1h-28.2v56.2h-18.7v-75h75v18.8l-28.1 28.1l37.5 37.5zm75-37.5h-75v-75h56.2l18.8 18.8zm-56.3-18.8h37.5v-28.1l-9.4-9.4h-28.1z" /></svg>