<svg version="1.2" xmlns="http://www.w3.org/2000/svg" viewBox="0 0 220 215" width="220" height="215"><style>.s0{fill:#ff9807}.s1{fill:#ffffff}</style><path class="s0" d="m108.9 98.3l37.5-20.1l8.1-0.5q28 0 46.5 19q18.2 19 18.2 48.8q0 30.6-18.2 49.9q-18.5 19.6-46.5 19.6q-16.1 0-29-7.5q-13.2-7.5-19.3-21.5l28.8-20.1q15.6 21.4 32.7 27.1q14-15.3 14-40.8q0-21.2-10-34.6q-10.3-13.1-28.8-13.1q-13.4 0-28.5 7.2z" /><path fill-rule="evenodd" class="s1" d="m118.2 52l-15.1 15.1l-66.3-0.8q1 19.3 11.9 29.9q11 10.7 27.9 10.7q14 0 33.2-9.4l5.5 13.8l-40.8 21.1l-8.3 0.5q-28.6 0-47.1-17.9q-18.5-18.2-18.5-46.1q0-29.1 18.8-48.8q18.7-20.1 45.5-20.1q23.4 0 38.2 14.6q15.1 14.3 15.1 37.4zm-62.4-32.2q-13.6 7.8-17.5 28.6l45-2.3q-1.8-11.2-9.6-18.8q-7.5-7.5-17.9-7.5z" /></svg>