<svg width="1649" height="1130" viewBox="0 0 1649 1130" fill="none" xmlns="http://www.w3.org/2000/svg">
<path d="M1094.09 560.547L836.819 817.817M836.819 817.817L1351.37 303.274L1608.64 560.547L1094.09 1075.1L836.819 817.817ZM836.819 817.817L579.546 560.547L836.819 303.274L1094.09 46L836.819 817.817ZM322.273 817.817L65 560.547L579.546 46L322.273 303.274V817.817ZM322.273 817.817L579.546 1075.1L708.182 946.457L740.342 914.297L322.273 817.817ZM322.273 817.817L453.109 686.987L484.719 655.377" stroke="#DEDDDD" stroke-width="80" stroke-linecap="round" stroke-linejoin="round"/>
<path d="M1069.09 574.547L811.819 831.817M811.819 831.817L1326.37 317.274L1583.64 574.547L1069.09 1089.1L811.819 831.817ZM811.819 831.817L554.546 574.547L811.819 317.274L1069.09 60L811.819 831.817ZM297.273 831.817L40 574.547L554.546 60L297.273 317.274V831.817ZM297.273 831.817L554.546 1089.1L683.182 960.457L715.342 928.297L297.273 831.817ZM297.273 831.817L428.109 700.987L459.719 669.377" stroke="#333333" stroke-width="80" stroke-linecap="round" stroke-linejoin="round"/>
<path d="M1070.86 554.59L813.59 811.86M813.59 811.86L1328.14 297.317L1585.41 554.59L1070.86 1069.14L813.59 811.86ZM813.59 811.86L556.317 554.59L813.59 297.317L1070.86 40.043L813.59 811.86ZM299.044 811.86L41.771 554.59L556.317 40.043L299.044 297.317V811.86ZM299.044 811.86L556.317 1069.14L684.953 940.5L717.113 908.34L299.044 811.86ZM299.044 811.86L429.88 681.03L461.49 649.42" stroke="#E17E22" stroke-width="80" stroke-linecap="round" stroke-linejoin="round"/>
</svg>
